<mxfile host="app.diagrams.net" agent="Mozilla/5.0 (Windows NT 10.0; Win64; x64) AppleWebKit/537.36 (KHTML, like Gecko) Chrome/131.0.0.0 Safari/537.36" version="26.0.5">
  <diagram name="Page-1" id="6xRrUCBPtQCPAdvizPN7">
    <mxGraphModel dx="3363" dy="3584" grid="1" gridSize="10" guides="1" tooltips="1" connect="1" arrows="1" fold="1" page="1" pageScale="1" pageWidth="2336" pageHeight="1654" math="0" shadow="0">
      <root>
        <mxCell id="0" />
        <mxCell id="1" parent="0" />
        <mxCell id="emTc7THupfJZA45jP89o-106" value="CuaHang" style="swimlane;fontStyle=1;align=center;verticalAlign=top;childLayout=stackLayout;horizontal=1;startSize=26;horizontalStack=0;resizeParent=1;resizeParentMax=0;resizeLast=0;collapsible=1;marginBottom=0;whiteSpace=wrap;html=1;" parent="1" vertex="1">
          <mxGeometry x="1040" y="-1212" width="180" height="128" as="geometry" />
        </mxCell>
        <mxCell id="emTc7THupfJZA45jP89o-107" value="- &lt;u&gt;maCH&lt;/u&gt;: int&amp;nbsp;&lt;div&gt;- duongPho: text&lt;/div&gt;&lt;div&gt;- thanhPho: text&lt;/div&gt;&lt;div&gt;- maBuuDien: int&lt;/div&gt;&lt;div&gt;- maNV: int&lt;/div&gt;" style="text;strokeColor=none;fillColor=none;align=left;verticalAlign=top;spacingLeft=4;spacingRight=4;overflow=hidden;rotatable=0;points=[[0,0.5],[1,0.5]];portConstraint=eastwest;whiteSpace=wrap;html=1;" parent="emTc7THupfJZA45jP89o-106" vertex="1">
          <mxGeometry y="26" width="180" height="94" as="geometry" />
        </mxCell>
        <mxCell id="emTc7THupfJZA45jP89o-108" value="" style="line;strokeWidth=1;fillColor=none;align=left;verticalAlign=middle;spacingTop=-1;spacingLeft=3;spacingRight=3;rotatable=0;labelPosition=right;points=[];portConstraint=eastwest;strokeColor=inherit;" parent="emTc7THupfJZA45jP89o-106" vertex="1">
          <mxGeometry y="120" width="180" height="8" as="geometry" />
        </mxCell>
        <mxCell id="emTc7THupfJZA45jP89o-109" value="NhanVien" style="swimlane;fontStyle=1;align=center;verticalAlign=top;childLayout=stackLayout;horizontal=1;startSize=26;horizontalStack=0;resizeParent=1;resizeParentMax=0;resizeLast=0;collapsible=1;marginBottom=0;whiteSpace=wrap;html=1;" parent="1" vertex="1">
          <mxGeometry x="1540" y="-1010" width="190" height="148" as="geometry" />
        </mxCell>
        <mxCell id="emTc7THupfJZA45jP89o-110" value="- maNV: int&lt;div&gt;- tenNV: text&lt;/div&gt;&lt;div&gt;- diaChi: text&lt;/div&gt;&lt;div&gt;- viTri: text&lt;/div&gt;&lt;div&gt;- luongCb: float&lt;/div&gt;&lt;div&gt;- maNV: int&lt;/div&gt;&lt;div&gt;- maCH: int&lt;/div&gt;" style="text;strokeColor=none;fillColor=none;align=left;verticalAlign=top;spacingLeft=4;spacingRight=4;overflow=hidden;rotatable=0;points=[[0,0.5],[1,0.5]];portConstraint=eastwest;whiteSpace=wrap;html=1;" parent="emTc7THupfJZA45jP89o-109" vertex="1">
          <mxGeometry y="26" width="190" height="114" as="geometry" />
        </mxCell>
        <mxCell id="emTc7THupfJZA45jP89o-111" value="" style="line;strokeWidth=1;fillColor=none;align=left;verticalAlign=middle;spacingTop=-1;spacingLeft=3;spacingRight=3;rotatable=0;labelPosition=right;points=[];portConstraint=eastwest;strokeColor=inherit;" parent="emTc7THupfJZA45jP89o-109" vertex="1">
          <mxGeometry y="140" width="190" height="8" as="geometry" />
        </mxCell>
        <mxCell id="emTc7THupfJZA45jP89o-112" value="GiamSat" style="swimlane;fontStyle=1;align=center;verticalAlign=top;childLayout=stackLayout;horizontal=1;startSize=26;horizontalStack=0;resizeParent=1;resizeParentMax=0;resizeLast=0;collapsible=1;marginBottom=0;whiteSpace=wrap;html=1;" parent="1" vertex="1">
          <mxGeometry x="1680" y="-1182" width="160" height="60" as="geometry" />
        </mxCell>
        <mxCell id="emTc7THupfJZA45jP89o-113" value="- soCa: int" style="text;strokeColor=none;fillColor=none;align=left;verticalAlign=top;spacingLeft=4;spacingRight=4;overflow=hidden;rotatable=0;points=[[0,0.5],[1,0.5]];portConstraint=eastwest;whiteSpace=wrap;html=1;" parent="emTc7THupfJZA45jP89o-112" vertex="1">
          <mxGeometry y="26" width="160" height="26" as="geometry" />
        </mxCell>
        <mxCell id="emTc7THupfJZA45jP89o-114" value="" style="line;strokeWidth=1;fillColor=none;align=left;verticalAlign=middle;spacingTop=-1;spacingLeft=3;spacingRight=3;rotatable=0;labelPosition=right;points=[];portConstraint=eastwest;strokeColor=inherit;" parent="emTc7THupfJZA45jP89o-112" vertex="1">
          <mxGeometry y="52" width="160" height="8" as="geometry" />
        </mxCell>
        <mxCell id="emTc7THupfJZA45jP89o-115" value="QuanLy" style="swimlane;fontStyle=1;align=center;verticalAlign=top;childLayout=stackLayout;horizontal=1;startSize=26;horizontalStack=0;resizeParent=1;resizeParentMax=0;resizeLast=0;collapsible=1;marginBottom=0;whiteSpace=wrap;html=1;" parent="1" vertex="1">
          <mxGeometry x="1410" y="-1211" width="160" height="108" as="geometry" />
        </mxCell>
        <mxCell id="emTc7THupfJZA45jP89o-116" value="- ngayBatDau: date&lt;div&gt;- thuong: float&lt;/div&gt;" style="text;strokeColor=none;fillColor=none;align=left;verticalAlign=top;spacingLeft=4;spacingRight=4;overflow=hidden;rotatable=0;points=[[0,0.5],[1,0.5]];portConstraint=eastwest;whiteSpace=wrap;html=1;" parent="emTc7THupfJZA45jP89o-115" vertex="1">
          <mxGeometry y="26" width="160" height="74" as="geometry" />
        </mxCell>
        <mxCell id="emTc7THupfJZA45jP89o-117" value="" style="line;strokeWidth=1;fillColor=none;align=left;verticalAlign=middle;spacingTop=-1;spacingLeft=3;spacingRight=3;rotatable=0;labelPosition=right;points=[];portConstraint=eastwest;strokeColor=inherit;" parent="emTc7THupfJZA45jP89o-115" vertex="1">
          <mxGeometry y="100" width="160" height="8" as="geometry" />
        </mxCell>
        <mxCell id="emTc7THupfJZA45jP89o-118" value="NguyenLieu" style="swimlane;fontStyle=1;align=center;verticalAlign=top;childLayout=stackLayout;horizontal=1;startSize=26;horizontalStack=0;resizeParent=1;resizeParentMax=0;resizeLast=0;collapsible=1;marginBottom=0;whiteSpace=wrap;html=1;" parent="1" vertex="1">
          <mxGeometry x="960" y="-930" width="160" height="158" as="geometry" />
        </mxCell>
        <mxCell id="emTc7THupfJZA45jP89o-119" value="- maNL: int&lt;div&gt;- tenNL: text&lt;/div&gt;&lt;div&gt;- donVi: text&lt;/div&gt;&lt;div&gt;- soLuong: int&lt;/div&gt;&lt;div&gt;- tonKhoToiThieu: int&lt;/div&gt;&lt;div&gt;- maNCC: int&lt;/div&gt;" style="text;strokeColor=none;fillColor=none;align=left;verticalAlign=top;spacingLeft=4;spacingRight=4;overflow=hidden;rotatable=0;points=[[0,0.5],[1,0.5]];portConstraint=eastwest;whiteSpace=wrap;html=1;" parent="emTc7THupfJZA45jP89o-118" vertex="1">
          <mxGeometry y="26" width="160" height="124" as="geometry" />
        </mxCell>
        <mxCell id="emTc7THupfJZA45jP89o-120" value="" style="line;strokeWidth=1;fillColor=none;align=left;verticalAlign=middle;spacingTop=-1;spacingLeft=3;spacingRight=3;rotatable=0;labelPosition=right;points=[];portConstraint=eastwest;strokeColor=inherit;" parent="emTc7THupfJZA45jP89o-118" vertex="1">
          <mxGeometry y="150" width="160" height="8" as="geometry" />
        </mxCell>
        <mxCell id="emTc7THupfJZA45jP89o-121" value="SanPham" style="swimlane;fontStyle=1;align=center;verticalAlign=top;childLayout=stackLayout;horizontal=1;startSize=26;horizontalStack=0;resizeParent=1;resizeParentMax=0;resizeLast=0;collapsible=1;marginBottom=0;whiteSpace=wrap;html=1;" parent="1" vertex="1">
          <mxGeometry x="580" y="-1211" width="160" height="148" as="geometry" />
        </mxCell>
        <mxCell id="emTc7THupfJZA45jP89o-122" value="- maSP: int&lt;div&gt;- tenSP: text&lt;/div&gt;&lt;div&gt;- moTa: text&lt;/div&gt;&lt;div&gt;- loaiSP: text&lt;/div&gt;&lt;div&gt;- giaBan: float&lt;/div&gt;&lt;div&gt;- soLuong: int&lt;/div&gt;&lt;div&gt;- isDeleted: boolean&lt;/div&gt;" style="text;strokeColor=none;fillColor=none;align=left;verticalAlign=top;spacingLeft=4;spacingRight=4;overflow=hidden;rotatable=0;points=[[0,0.5],[1,0.5]];portConstraint=eastwest;whiteSpace=wrap;html=1;" parent="emTc7THupfJZA45jP89o-121" vertex="1">
          <mxGeometry y="26" width="160" height="114" as="geometry" />
        </mxCell>
        <mxCell id="emTc7THupfJZA45jP89o-123" value="" style="line;strokeWidth=1;fillColor=none;align=left;verticalAlign=middle;spacingTop=-1;spacingLeft=3;spacingRight=3;rotatable=0;labelPosition=right;points=[];portConstraint=eastwest;strokeColor=inherit;" parent="emTc7THupfJZA45jP89o-121" vertex="1">
          <mxGeometry y="140" width="160" height="8" as="geometry" />
        </mxCell>
        <mxCell id="emTc7THupfJZA45jP89o-124" value="NCCChinh" style="swimlane;fontStyle=1;align=center;verticalAlign=top;childLayout=stackLayout;horizontal=1;startSize=26;horizontalStack=0;resizeParent=1;resizeParentMax=0;resizeLast=0;collapsible=1;marginBottom=0;whiteSpace=wrap;html=1;" parent="1" vertex="1">
          <mxGeometry x="720" y="-730" width="160" height="88" as="geometry" />
        </mxCell>
        <mxCell id="emTc7THupfJZA45jP89o-125" value="- tenCongTy: text&lt;div&gt;- loaiHang: text&lt;div&gt;- tenNguoiLienHe: text&lt;/div&gt;&lt;/div&gt;" style="text;strokeColor=none;fillColor=none;align=left;verticalAlign=top;spacingLeft=4;spacingRight=4;overflow=hidden;rotatable=0;points=[[0,0.5],[1,0.5]];portConstraint=eastwest;whiteSpace=wrap;html=1;" parent="emTc7THupfJZA45jP89o-124" vertex="1">
          <mxGeometry y="26" width="160" height="54" as="geometry" />
        </mxCell>
        <mxCell id="emTc7THupfJZA45jP89o-126" value="" style="line;strokeWidth=1;fillColor=none;align=left;verticalAlign=middle;spacingTop=-1;spacingLeft=3;spacingRight=3;rotatable=0;labelPosition=right;points=[];portConstraint=eastwest;strokeColor=inherit;" parent="emTc7THupfJZA45jP89o-124" vertex="1">
          <mxGeometry y="80" width="160" height="8" as="geometry" />
        </mxCell>
        <mxCell id="emTc7THupfJZA45jP89o-127" value="NhaCungCap" style="swimlane;fontStyle=1;align=center;verticalAlign=top;childLayout=stackLayout;horizontal=1;startSize=26;horizontalStack=0;resizeParent=1;resizeParentMax=0;resizeLast=0;collapsible=1;marginBottom=0;whiteSpace=wrap;html=1;" parent="1" vertex="1">
          <mxGeometry x="580" y="-930" width="160" height="118" as="geometry" />
        </mxCell>
        <mxCell id="emTc7THupfJZA45jP89o-128" value="- maNCC: int&lt;div&gt;- diaChi: text&lt;/div&gt;&lt;div&gt;- soDienThoai: text&lt;/div&gt;" style="text;strokeColor=none;fillColor=none;align=left;verticalAlign=top;spacingLeft=4;spacingRight=4;overflow=hidden;rotatable=0;points=[[0,0.5],[1,0.5]];portConstraint=eastwest;whiteSpace=wrap;html=1;" parent="emTc7THupfJZA45jP89o-127" vertex="1">
          <mxGeometry y="26" width="160" height="84" as="geometry" />
        </mxCell>
        <mxCell id="emTc7THupfJZA45jP89o-129" value="" style="line;strokeWidth=1;fillColor=none;align=left;verticalAlign=middle;spacingTop=-1;spacingLeft=3;spacingRight=3;rotatable=0;labelPosition=right;points=[];portConstraint=eastwest;strokeColor=inherit;" parent="emTc7THupfJZA45jP89o-127" vertex="1">
          <mxGeometry y="110" width="160" height="8" as="geometry" />
        </mxCell>
        <mxCell id="emTc7THupfJZA45jP89o-130" value="NCCPhu" style="swimlane;fontStyle=1;align=center;verticalAlign=top;childLayout=stackLayout;horizontal=1;startSize=26;horizontalStack=0;resizeParent=1;resizeParentMax=0;resizeLast=0;collapsible=1;marginBottom=0;whiteSpace=wrap;html=1;" parent="1" vertex="1">
          <mxGeometry x="440" y="-730" width="160" height="60" as="geometry" />
        </mxCell>
        <mxCell id="emTc7THupfJZA45jP89o-131" value="- tenDoanhNghiep: text" style="text;strokeColor=none;fillColor=none;align=left;verticalAlign=top;spacingLeft=4;spacingRight=4;overflow=hidden;rotatable=0;points=[[0,0.5],[1,0.5]];portConstraint=eastwest;whiteSpace=wrap;html=1;" parent="emTc7THupfJZA45jP89o-130" vertex="1">
          <mxGeometry y="26" width="160" height="26" as="geometry" />
        </mxCell>
        <mxCell id="emTc7THupfJZA45jP89o-132" value="" style="line;strokeWidth=1;fillColor=none;align=left;verticalAlign=middle;spacingTop=-1;spacingLeft=3;spacingRight=3;rotatable=0;labelPosition=right;points=[];portConstraint=eastwest;strokeColor=inherit;" parent="emTc7THupfJZA45jP89o-130" vertex="1">
          <mxGeometry y="52" width="160" height="8" as="geometry" />
        </mxCell>
        <mxCell id="emTc7THupfJZA45jP89o-133" value="ThanhVien" style="swimlane;fontStyle=1;align=center;verticalAlign=top;childLayout=stackLayout;horizontal=1;startSize=26;horizontalStack=0;resizeParent=1;resizeParentMax=0;resizeLast=0;collapsible=1;marginBottom=0;whiteSpace=wrap;html=1;" parent="1" vertex="1">
          <mxGeometry x="1240" y="-930" width="160" height="168" as="geometry" />
        </mxCell>
        <mxCell id="emTc7THupfJZA45jP89o-134" value="- maTV: int&lt;div&gt;- tenTV: text&lt;/div&gt;&lt;div&gt;- soDienThoai: text&lt;/div&gt;&lt;div&gt;- email: text&lt;/div&gt;&lt;div&gt;- ngaySinh: date&lt;/div&gt;&lt;div&gt;- diemTichLuy: int&lt;/div&gt;&lt;div&gt;- ngayDangKy: date&lt;/div&gt;&lt;div&gt;- maNV: int&lt;/div&gt;&lt;div&gt;- maCH: int&lt;/div&gt;" style="text;strokeColor=none;fillColor=none;align=left;verticalAlign=top;spacingLeft=4;spacingRight=4;overflow=hidden;rotatable=0;points=[[0,0.5],[1,0.5]];portConstraint=eastwest;whiteSpace=wrap;html=1;" parent="emTc7THupfJZA45jP89o-133" vertex="1">
          <mxGeometry y="26" width="160" height="134" as="geometry" />
        </mxCell>
        <mxCell id="emTc7THupfJZA45jP89o-135" value="" style="line;strokeWidth=1;fillColor=none;align=left;verticalAlign=middle;spacingTop=-1;spacingLeft=3;spacingRight=3;rotatable=0;labelPosition=right;points=[];portConstraint=eastwest;strokeColor=inherit;" parent="emTc7THupfJZA45jP89o-133" vertex="1">
          <mxGeometry y="160" width="160" height="8" as="geometry" />
        </mxCell>
        <mxCell id="emTc7THupfJZA45jP89o-136" value="DonHang" style="swimlane;fontStyle=1;align=center;verticalAlign=top;childLayout=stackLayout;horizontal=1;startSize=26;horizontalStack=0;resizeParent=1;resizeParentMax=0;resizeLast=0;collapsible=1;marginBottom=0;whiteSpace=wrap;html=1;" parent="1" vertex="1">
          <mxGeometry x="1240" y="-570" width="160" height="168" as="geometry" />
        </mxCell>
        <mxCell id="emTc7THupfJZA45jP89o-137" value="- maDH: int&lt;div&gt;- ngayGio: date&lt;/div&gt;&lt;div&gt;- maTV: int&lt;/div&gt;&lt;div&gt;- tenKH: text&lt;/div&gt;&lt;div&gt;- soDienThoai: text&lt;/div&gt;&lt;div&gt;- tongTien: float&lt;/div&gt;&lt;div&gt;- phuongThuc: text&lt;/div&gt;&lt;div&gt;- maGiaoDich: text&lt;/div&gt;&lt;div&gt;- trangThai: text&lt;/div&gt;" style="text;strokeColor=none;fillColor=none;align=left;verticalAlign=top;spacingLeft=4;spacingRight=4;overflow=hidden;rotatable=0;points=[[0,0.5],[1,0.5]];portConstraint=eastwest;whiteSpace=wrap;html=1;" parent="emTc7THupfJZA45jP89o-136" vertex="1">
          <mxGeometry y="26" width="160" height="134" as="geometry" />
        </mxCell>
        <mxCell id="emTc7THupfJZA45jP89o-138" value="" style="line;strokeWidth=1;fillColor=none;align=left;verticalAlign=middle;spacingTop=-1;spacingLeft=3;spacingRight=3;rotatable=0;labelPosition=right;points=[];portConstraint=eastwest;strokeColor=inherit;" parent="emTc7THupfJZA45jP89o-136" vertex="1">
          <mxGeometry y="160" width="160" height="8" as="geometry" />
        </mxCell>
        <mxCell id="emTc7THupfJZA45jP89o-139" value="ChiTietDonHang" style="swimlane;fontStyle=1;align=center;verticalAlign=top;childLayout=stackLayout;horizontal=1;startSize=26;horizontalStack=0;resizeParent=1;resizeParentMax=0;resizeLast=0;collapsible=1;marginBottom=0;whiteSpace=wrap;html=1;" parent="1" vertex="1">
          <mxGeometry x="960" y="-570" width="160" height="98" as="geometry" />
        </mxCell>
        <mxCell id="emTc7THupfJZA45jP89o-140" value="- maDH: int&lt;div&gt;- maSP: int&lt;/div&gt;&lt;div&gt;- soLuong: int&lt;/div&gt;" style="text;strokeColor=none;fillColor=none;align=left;verticalAlign=top;spacingLeft=4;spacingRight=4;overflow=hidden;rotatable=0;points=[[0,0.5],[1,0.5]];portConstraint=eastwest;whiteSpace=wrap;html=1;" parent="emTc7THupfJZA45jP89o-139" vertex="1">
          <mxGeometry y="26" width="160" height="64" as="geometry" />
        </mxCell>
        <mxCell id="emTc7THupfJZA45jP89o-141" value="" style="line;strokeWidth=1;fillColor=none;align=left;verticalAlign=middle;spacingTop=-1;spacingLeft=3;spacingRight=3;rotatable=0;labelPosition=right;points=[];portConstraint=eastwest;strokeColor=inherit;" parent="emTc7THupfJZA45jP89o-139" vertex="1">
          <mxGeometry y="90" width="160" height="8" as="geometry" />
        </mxCell>
        <mxCell id="emTc7THupfJZA45jP89o-142" value="quanLy" style="text;html=1;align=center;verticalAlign=middle;resizable=0;points=[];autosize=1;strokeColor=none;fillColor=none;" parent="1" vertex="1">
          <mxGeometry x="1280" y="-1200" width="60" height="30" as="geometry" />
        </mxCell>
        <mxCell id="emTc7THupfJZA45jP89o-143" value="" style="endArrow=none;html=1;rounded=0;exitX=1.02;exitY=0.171;exitDx=0;exitDy=0;exitPerimeter=0;entryX=-0.02;entryY=0.211;entryDx=0;entryDy=0;entryPerimeter=0;" parent="1" source="emTc7THupfJZA45jP89o-107" target="emTc7THupfJZA45jP89o-116" edge="1">
          <mxGeometry relative="1" as="geometry">
            <mxPoint x="1260" y="-1170" as="sourcePoint" />
            <mxPoint x="1420" y="-1170" as="targetPoint" />
          </mxGeometry>
        </mxCell>
        <mxCell id="emTc7THupfJZA45jP89o-144" value="1" style="resizable=0;html=1;whiteSpace=wrap;align=left;verticalAlign=bottom;" parent="emTc7THupfJZA45jP89o-143" connectable="0" vertex="1">
          <mxGeometry x="-1" relative="1" as="geometry" />
        </mxCell>
        <mxCell id="emTc7THupfJZA45jP89o-145" value="1" style="resizable=0;html=1;whiteSpace=wrap;align=right;verticalAlign=bottom;" parent="emTc7THupfJZA45jP89o-143" connectable="0" vertex="1">
          <mxGeometry x="1" relative="1" as="geometry" />
        </mxCell>
        <mxCell id="emTc7THupfJZA45jP89o-146" value="" style="endArrow=block;endSize=16;endFill=0;html=1;rounded=0;exitX=1;exitY=0.5;exitDx=0;exitDy=0;entryX=0.5;entryY=0;entryDx=0;entryDy=0;" parent="1" source="emTc7THupfJZA45jP89o-116" target="emTc7THupfJZA45jP89o-109" edge="1">
          <mxGeometry x="0.1221" y="35" width="160" relative="1" as="geometry">
            <mxPoint x="1230" y="-920" as="sourcePoint" />
            <mxPoint x="1390" y="-920" as="targetPoint" />
            <Array as="points">
              <mxPoint x="1635" y="-1150" />
            </Array>
            <mxPoint as="offset" />
          </mxGeometry>
        </mxCell>
        <mxCell id="emTc7THupfJZA45jP89o-147" value="" style="endArrow=block;endSize=16;endFill=0;html=1;rounded=0;exitX=0.012;exitY=0.207;exitDx=0;exitDy=0;exitPerimeter=0;entryX=0.5;entryY=0;entryDx=0;entryDy=0;" parent="1" target="emTc7THupfJZA45jP89o-109" edge="1">
          <mxGeometry x="0.0213" y="5" width="160" relative="1" as="geometry">
            <mxPoint x="1681.92" y="-1146.618" as="sourcePoint" />
            <mxPoint x="1390" y="-920" as="targetPoint" />
            <Array as="points">
              <mxPoint x="1635" y="-1147" />
            </Array>
            <mxPoint as="offset" />
          </mxGeometry>
        </mxCell>
        <mxCell id="emTc7THupfJZA45jP89o-148" value="Optional, Or" style="text;html=1;align=center;verticalAlign=middle;resizable=0;points=[];autosize=1;strokeColor=none;fillColor=none;" parent="1" vertex="1">
          <mxGeometry x="1585" y="-1182" width="90" height="30" as="geometry" />
        </mxCell>
        <mxCell id="emTc7THupfJZA45jP89o-149" value="" style="endArrow=none;html=1;rounded=0;exitX=0.512;exitY=1.12;exitDx=0;exitDy=0;exitPerimeter=0;entryX=1;entryY=0.5;entryDx=0;entryDy=0;" parent="1" target="emTc7THupfJZA45jP89o-110" edge="1">
          <mxGeometry relative="1" as="geometry">
            <mxPoint x="1761.92" y="-1122.8799999999999" as="sourcePoint" />
            <mxPoint x="1417" y="-1159" as="targetPoint" />
            <Array as="points">
              <mxPoint x="1762" y="-927" />
            </Array>
          </mxGeometry>
        </mxCell>
        <mxCell id="emTc7THupfJZA45jP89o-150" value="1" style="resizable=0;html=1;whiteSpace=wrap;align=left;verticalAlign=bottom;" parent="emTc7THupfJZA45jP89o-149" connectable="0" vertex="1">
          <mxGeometry x="-1" relative="1" as="geometry">
            <mxPoint x="8" y="23" as="offset" />
          </mxGeometry>
        </mxCell>
        <mxCell id="emTc7THupfJZA45jP89o-151" value="1..5" style="resizable=0;html=1;whiteSpace=wrap;align=right;verticalAlign=bottom;" parent="emTc7THupfJZA45jP89o-149" connectable="0" vertex="1">
          <mxGeometry x="1" relative="1" as="geometry">
            <mxPoint x="30" as="offset" />
          </mxGeometry>
        </mxCell>
        <mxCell id="emTc7THupfJZA45jP89o-152" value="giamSat" style="text;html=1;align=center;verticalAlign=middle;resizable=0;points=[];autosize=1;strokeColor=none;fillColor=none;" parent="1" vertex="1">
          <mxGeometry x="1760" y="-1050" width="70" height="30" as="geometry" />
        </mxCell>
        <mxCell id="emTc7THupfJZA45jP89o-153" value="" style="endArrow=none;html=1;rounded=0;exitX=1;exitY=0.5;exitDx=0;exitDy=0;entryX=0;entryY=0.5;entryDx=0;entryDy=0;" parent="1" source="emTc7THupfJZA45jP89o-199" target="emTc7THupfJZA45jP89o-110" edge="1">
          <mxGeometry relative="1" as="geometry">
            <mxPoint x="1213" y="-1162" as="sourcePoint" />
            <mxPoint x="1417" y="-1159" as="targetPoint" />
          </mxGeometry>
        </mxCell>
        <mxCell id="emTc7THupfJZA45jP89o-154" value="N" style="resizable=0;html=1;whiteSpace=wrap;align=right;verticalAlign=bottom;" parent="emTc7THupfJZA45jP89o-153" connectable="0" vertex="1">
          <mxGeometry x="1" relative="1" as="geometry">
            <mxPoint x="-10" y="-13" as="offset" />
          </mxGeometry>
        </mxCell>
        <mxCell id="emTc7THupfJZA45jP89o-155" value="lamViec" style="text;html=1;align=center;verticalAlign=middle;resizable=0;points=[];autosize=1;strokeColor=none;fillColor=none;rotation=30;" parent="1" vertex="1">
          <mxGeometry x="1345" y="-1072" width="70" height="30" as="geometry" />
        </mxCell>
        <mxCell id="emTc7THupfJZA45jP89o-156" value="CuaHang_SanPham" style="swimlane;fontStyle=1;align=center;verticalAlign=top;childLayout=stackLayout;horizontal=1;startSize=26;horizontalStack=0;resizeParent=1;resizeParentMax=0;resizeLast=0;collapsible=1;marginBottom=0;whiteSpace=wrap;html=1;" parent="1" vertex="1">
          <mxGeometry x="820" y="-1210" width="160" height="78" as="geometry" />
        </mxCell>
        <mxCell id="emTc7THupfJZA45jP89o-157" value="- maCH: int&lt;div&gt;- maSP: int&lt;/div&gt;" style="text;strokeColor=none;fillColor=none;align=left;verticalAlign=top;spacingLeft=4;spacingRight=4;overflow=hidden;rotatable=0;points=[[0,0.5],[1,0.5]];portConstraint=eastwest;whiteSpace=wrap;html=1;" parent="emTc7THupfJZA45jP89o-156" vertex="1">
          <mxGeometry y="26" width="160" height="44" as="geometry" />
        </mxCell>
        <mxCell id="emTc7THupfJZA45jP89o-158" value="" style="line;strokeWidth=1;fillColor=none;align=left;verticalAlign=middle;spacingTop=-1;spacingLeft=3;spacingRight=3;rotatable=0;labelPosition=right;points=[];portConstraint=eastwest;strokeColor=inherit;" parent="emTc7THupfJZA45jP89o-156" vertex="1">
          <mxGeometry y="70" width="160" height="8" as="geometry" />
        </mxCell>
        <mxCell id="emTc7THupfJZA45jP89o-159" value="" style="endArrow=none;html=1;rounded=0;exitX=1;exitY=0.5;exitDx=0;exitDy=0;" parent="1" source="emTc7THupfJZA45jP89o-180" edge="1">
          <mxGeometry relative="1" as="geometry">
            <mxPoint x="1213" y="-1162" as="sourcePoint" />
            <mxPoint x="1038" y="-1162" as="targetPoint" />
          </mxGeometry>
        </mxCell>
        <mxCell id="emTc7THupfJZA45jP89o-160" value="1" style="resizable=0;html=1;whiteSpace=wrap;align=right;verticalAlign=bottom;" parent="emTc7THupfJZA45jP89o-159" connectable="0" vertex="1">
          <mxGeometry x="1" relative="1" as="geometry" />
        </mxCell>
        <mxCell id="emTc7THupfJZA45jP89o-161" value="" style="endArrow=none;html=1;rounded=0;exitX=0;exitY=0.5;exitDx=0;exitDy=0;entryX=0.996;entryY=0.194;entryDx=0;entryDy=0;entryPerimeter=0;" parent="1" source="emTc7THupfJZA45jP89o-183" target="emTc7THupfJZA45jP89o-122" edge="1">
          <mxGeometry relative="1" as="geometry">
            <mxPoint x="990" y="-1152" as="sourcePoint" />
            <mxPoint x="1048" y="-1152" as="targetPoint" />
          </mxGeometry>
        </mxCell>
        <mxCell id="emTc7THupfJZA45jP89o-162" value="1" style="resizable=0;html=1;whiteSpace=wrap;align=right;verticalAlign=bottom;" parent="emTc7THupfJZA45jP89o-161" connectable="0" vertex="1">
          <mxGeometry x="1" relative="1" as="geometry">
            <mxPoint x="21" as="offset" />
          </mxGeometry>
        </mxCell>
        <mxCell id="emTc7THupfJZA45jP89o-163" value="" style="endArrow=none;html=1;rounded=0;exitX=1.02;exitY=0.171;exitDx=0;exitDy=0;exitPerimeter=0;entryX=0.012;entryY=0.11;entryDx=0;entryDy=0;entryPerimeter=0;" parent="1" source="emTc7THupfJZA45jP89o-186" target="emTc7THupfJZA45jP89o-119" edge="1">
          <mxGeometry relative="1" as="geometry">
            <mxPoint x="740" y="-890" as="sourcePoint" />
            <mxPoint x="944" y="-887" as="targetPoint" />
          </mxGeometry>
        </mxCell>
        <mxCell id="emTc7THupfJZA45jP89o-164" value="N" style="resizable=0;html=1;whiteSpace=wrap;align=right;verticalAlign=bottom;" parent="emTc7THupfJZA45jP89o-163" connectable="0" vertex="1">
          <mxGeometry x="1" relative="1" as="geometry">
            <mxPoint x="-12" as="offset" />
          </mxGeometry>
        </mxCell>
        <mxCell id="emTc7THupfJZA45jP89o-165" value="" style="endArrow=block;endSize=16;endFill=0;html=1;rounded=0;exitX=1;exitY=0.5;exitDx=0;exitDy=0;entryX=0.324;entryY=1.25;entryDx=0;entryDy=0;entryPerimeter=0;" parent="1" source="emTc7THupfJZA45jP89o-131" target="emTc7THupfJZA45jP89o-129" edge="1">
          <mxGeometry width="160" relative="1" as="geometry">
            <mxPoint x="810" y="-720" as="sourcePoint" />
            <mxPoint x="631.8399999999999" y="-784.1279999999999" as="targetPoint" />
            <Array as="points">
              <mxPoint x="632" y="-690" />
            </Array>
          </mxGeometry>
        </mxCell>
        <mxCell id="emTc7THupfJZA45jP89o-166" value="" style="endArrow=block;endSize=16;endFill=0;html=1;rounded=0;exitX=0;exitY=0.5;exitDx=0;exitDy=0;" parent="1" source="emTc7THupfJZA45jP89o-125" edge="1">
          <mxGeometry width="160" relative="1" as="geometry">
            <mxPoint x="610" y="-681" as="sourcePoint" />
            <mxPoint x="683" y="-810" as="targetPoint" />
            <Array as="points">
              <mxPoint x="683" y="-677" />
            </Array>
          </mxGeometry>
        </mxCell>
        <mxCell id="emTc7THupfJZA45jP89o-167" value="Mandatory, Or" style="text;html=1;align=center;verticalAlign=middle;resizable=0;points=[];autosize=1;strokeColor=none;fillColor=none;" parent="1" vertex="1">
          <mxGeometry x="610" y="-674" width="100" height="30" as="geometry" />
        </mxCell>
        <mxCell id="emTc7THupfJZA45jP89o-168" value="cungCap" style="text;html=1;align=center;verticalAlign=middle;resizable=0;points=[];autosize=1;strokeColor=none;fillColor=none;" parent="1" vertex="1">
          <mxGeometry x="835" y="-922" width="70" height="30" as="geometry" />
        </mxCell>
        <mxCell id="emTc7THupfJZA45jP89o-169" value="" style="endArrow=none;html=1;rounded=0;exitX=0.5;exitY=1;exitDx=0;exitDy=0;entryX=0.5;entryY=0;entryDx=0;entryDy=0;" parent="1" source="emTc7THupfJZA45jP89o-106" target="emTc7THupfJZA45jP89o-133" edge="1">
          <mxGeometry relative="1" as="geometry">
            <mxPoint x="1129.2799999999997" y="-1041.79" as="sourcePoint" />
            <mxPoint x="1560" y="-917" as="targetPoint" />
          </mxGeometry>
        </mxCell>
        <mxCell id="emTc7THupfJZA45jP89o-170" value="1" style="resizable=0;html=1;whiteSpace=wrap;align=left;verticalAlign=bottom;" parent="emTc7THupfJZA45jP89o-169" connectable="0" vertex="1">
          <mxGeometry x="-1" relative="1" as="geometry">
            <mxPoint x="21" y="18" as="offset" />
          </mxGeometry>
        </mxCell>
        <mxCell id="emTc7THupfJZA45jP89o-171" value="N" style="resizable=0;html=1;whiteSpace=wrap;align=right;verticalAlign=bottom;" parent="emTc7THupfJZA45jP89o-169" connectable="0" vertex="1">
          <mxGeometry x="1" relative="1" as="geometry">
            <mxPoint x="-10" y="-13" as="offset" />
          </mxGeometry>
        </mxCell>
        <mxCell id="emTc7THupfJZA45jP89o-172" value="" style="endArrow=none;html=1;rounded=0;exitX=-0.004;exitY=0.821;exitDx=0;exitDy=0;entryX=1.003;entryY=0.157;entryDx=0;entryDy=0;exitPerimeter=0;entryPerimeter=0;" parent="1" source="emTc7THupfJZA45jP89o-203" target="emTc7THupfJZA45jP89o-134" edge="1">
          <mxGeometry relative="1" as="geometry">
            <mxPoint x="1400" y="-868" as="sourcePoint" />
            <mxPoint x="1601" y="-730" as="targetPoint" />
          </mxGeometry>
        </mxCell>
        <mxCell id="emTc7THupfJZA45jP89o-173" value="N" style="resizable=0;html=1;whiteSpace=wrap;align=right;verticalAlign=bottom;" parent="emTc7THupfJZA45jP89o-172" connectable="0" vertex="1">
          <mxGeometry x="1" relative="1" as="geometry">
            <mxPoint x="21" as="offset" />
          </mxGeometry>
        </mxCell>
        <mxCell id="emTc7THupfJZA45jP89o-174" value="" style="endArrow=none;html=1;rounded=0;exitX=1.02;exitY=0.171;exitDx=0;exitDy=0;exitPerimeter=0;" parent="1" source="emTc7THupfJZA45jP89o-192" edge="1">
          <mxGeometry relative="1" as="geometry">
            <mxPoint x="1120" y="-530" as="sourcePoint" />
            <mxPoint x="1240" y="-530" as="targetPoint" />
          </mxGeometry>
        </mxCell>
        <mxCell id="emTc7THupfJZA45jP89o-175" value="1" style="resizable=0;html=1;whiteSpace=wrap;align=right;verticalAlign=bottom;" parent="emTc7THupfJZA45jP89o-174" connectable="0" vertex="1">
          <mxGeometry x="1" relative="1" as="geometry">
            <mxPoint x="-12" as="offset" />
          </mxGeometry>
        </mxCell>
        <mxCell id="emTc7THupfJZA45jP89o-176" value="" style="endArrow=none;html=1;rounded=0;entryX=0.5;entryY=0;entryDx=0;entryDy=0;exitX=0.5;exitY=1;exitDx=0;exitDy=0;" parent="1" source="emTc7THupfJZA45jP89o-196" target="emTc7THupfJZA45jP89o-136" edge="1">
          <mxGeometry relative="1" as="geometry">
            <mxPoint x="1320" y="-730" as="sourcePoint" />
            <mxPoint x="1250" y="-520" as="targetPoint" />
          </mxGeometry>
        </mxCell>
        <mxCell id="emTc7THupfJZA45jP89o-177" value="N" style="resizable=0;html=1;whiteSpace=wrap;align=right;verticalAlign=bottom;" parent="emTc7THupfJZA45jP89o-176" connectable="0" vertex="1">
          <mxGeometry x="1" relative="1" as="geometry">
            <mxPoint x="-12" as="offset" />
          </mxGeometry>
        </mxCell>
        <mxCell id="emTc7THupfJZA45jP89o-178" value="" style="endArrow=none;html=1;rounded=0;exitX=1;exitY=0.5;exitDx=0;exitDy=0;" parent="1" source="emTc7THupfJZA45jP89o-157" target="emTc7THupfJZA45jP89o-180" edge="1">
          <mxGeometry relative="1" as="geometry">
            <mxPoint x="980" y="-1162" as="sourcePoint" />
            <mxPoint x="1038" y="-1162" as="targetPoint" />
          </mxGeometry>
        </mxCell>
        <mxCell id="emTc7THupfJZA45jP89o-179" value="N" style="resizable=0;html=1;whiteSpace=wrap;align=left;verticalAlign=bottom;" parent="emTc7THupfJZA45jP89o-178" connectable="0" vertex="1">
          <mxGeometry x="-1" relative="1" as="geometry" />
        </mxCell>
        <mxCell id="emTc7THupfJZA45jP89o-180" value="" style="rhombus;whiteSpace=wrap;html=1;" parent="1" vertex="1">
          <mxGeometry x="1020" y="-1167" width="20" height="10" as="geometry" />
        </mxCell>
        <mxCell id="emTc7THupfJZA45jP89o-181" value="" style="endArrow=none;html=1;rounded=0;exitX=0;exitY=0.5;exitDx=0;exitDy=0;entryX=0.996;entryY=0.194;entryDx=0;entryDy=0;entryPerimeter=0;" parent="1" source="emTc7THupfJZA45jP89o-157" target="emTc7THupfJZA45jP89o-183" edge="1">
          <mxGeometry relative="1" as="geometry">
            <mxPoint x="820" y="-1162" as="sourcePoint" />
            <mxPoint x="739" y="-1163" as="targetPoint" />
          </mxGeometry>
        </mxCell>
        <mxCell id="emTc7THupfJZA45jP89o-182" value="N" style="resizable=0;html=1;whiteSpace=wrap;align=left;verticalAlign=bottom;" parent="emTc7THupfJZA45jP89o-181" connectable="0" vertex="1">
          <mxGeometry x="-1" relative="1" as="geometry">
            <mxPoint x="-20" as="offset" />
          </mxGeometry>
        </mxCell>
        <mxCell id="emTc7THupfJZA45jP89o-183" value="" style="rhombus;whiteSpace=wrap;html=1;" parent="1" vertex="1">
          <mxGeometry x="740" y="-1164" width="20" height="10" as="geometry" />
        </mxCell>
        <mxCell id="emTc7THupfJZA45jP89o-184" value="" style="endArrow=none;html=1;rounded=0;exitX=1.02;exitY=0.171;exitDx=0;exitDy=0;exitPerimeter=0;entryX=0.012;entryY=0.11;entryDx=0;entryDy=0;entryPerimeter=0;" parent="1" target="emTc7THupfJZA45jP89o-186" edge="1">
          <mxGeometry relative="1" as="geometry">
            <mxPoint x="740" y="-890" as="sourcePoint" />
            <mxPoint x="962" y="-890" as="targetPoint" />
          </mxGeometry>
        </mxCell>
        <mxCell id="emTc7THupfJZA45jP89o-185" value="1" style="resizable=0;html=1;whiteSpace=wrap;align=left;verticalAlign=bottom;" parent="emTc7THupfJZA45jP89o-184" connectable="0" vertex="1">
          <mxGeometry x="-1" relative="1" as="geometry">
            <mxPoint x="10" as="offset" />
          </mxGeometry>
        </mxCell>
        <mxCell id="emTc7THupfJZA45jP89o-186" value="" style="rhombus;whiteSpace=wrap;html=1;" parent="1" vertex="1">
          <mxGeometry x="740" y="-893" width="20" height="10" as="geometry" />
        </mxCell>
        <mxCell id="emTc7THupfJZA45jP89o-187" value="" style="endArrow=none;html=1;rounded=0;exitX=-0.012;exitY=0.154;exitDx=0;exitDy=0;entryX=0;entryY=0.5;entryDx=0;entryDy=0;exitPerimeter=0;" parent="1" source="emTc7THupfJZA45jP89o-140" target="emTc7THupfJZA45jP89o-189" edge="1">
          <mxGeometry relative="1" as="geometry">
            <mxPoint x="958" y="-534" as="sourcePoint" />
            <mxPoint x="580" y="-1128" as="targetPoint" />
            <Array as="points">
              <mxPoint x="360" y="-534" />
              <mxPoint x="360" y="-1130" />
            </Array>
          </mxGeometry>
        </mxCell>
        <mxCell id="emTc7THupfJZA45jP89o-188" value="N" style="resizable=0;html=1;whiteSpace=wrap;align=left;verticalAlign=bottom;" parent="emTc7THupfJZA45jP89o-187" connectable="0" vertex="1">
          <mxGeometry x="-1" relative="1" as="geometry">
            <mxPoint x="-28" y="-6" as="offset" />
          </mxGeometry>
        </mxCell>
        <mxCell id="emTc7THupfJZA45jP89o-189" value="" style="rhombus;whiteSpace=wrap;html=1;" parent="1" vertex="1">
          <mxGeometry x="560" y="-1135" width="20" height="10" as="geometry" />
        </mxCell>
        <mxCell id="emTc7THupfJZA45jP89o-190" value="" style="endArrow=none;html=1;rounded=0;exitX=1.02;exitY=0.171;exitDx=0;exitDy=0;exitPerimeter=0;" parent="1" target="emTc7THupfJZA45jP89o-192" edge="1">
          <mxGeometry relative="1" as="geometry">
            <mxPoint x="1120" y="-530" as="sourcePoint" />
            <mxPoint x="1240" y="-530" as="targetPoint" />
          </mxGeometry>
        </mxCell>
        <mxCell id="emTc7THupfJZA45jP89o-191" value="N" style="resizable=0;html=1;whiteSpace=wrap;align=left;verticalAlign=bottom;" parent="emTc7THupfJZA45jP89o-190" connectable="0" vertex="1">
          <mxGeometry x="-1" relative="1" as="geometry">
            <mxPoint x="10" as="offset" />
          </mxGeometry>
        </mxCell>
        <mxCell id="emTc7THupfJZA45jP89o-192" value="" style="rhombus;whiteSpace=wrap;html=1;" parent="1" vertex="1">
          <mxGeometry x="1220" y="-535" width="20" height="10" as="geometry" />
        </mxCell>
        <mxCell id="emTc7THupfJZA45jP89o-193" value="mua" style="text;html=1;align=center;verticalAlign=middle;resizable=0;points=[];autosize=1;strokeColor=none;fillColor=none;" parent="1" vertex="1">
          <mxGeometry x="1315" y="-682" width="50" height="30" as="geometry" />
        </mxCell>
        <mxCell id="emTc7THupfJZA45jP89o-194" value="" style="endArrow=none;html=1;rounded=0;entryX=0.5;entryY=0;entryDx=0;entryDy=0;exitX=0.5;exitY=1;exitDx=0;exitDy=0;" parent="1" source="emTc7THupfJZA45jP89o-133" target="emTc7THupfJZA45jP89o-196" edge="1">
          <mxGeometry relative="1" as="geometry">
            <mxPoint x="1320" y="-762" as="sourcePoint" />
            <mxPoint x="1320" y="-570" as="targetPoint" />
          </mxGeometry>
        </mxCell>
        <mxCell id="emTc7THupfJZA45jP89o-195" value="1" style="resizable=0;html=1;whiteSpace=wrap;align=left;verticalAlign=bottom;" parent="emTc7THupfJZA45jP89o-194" connectable="0" vertex="1">
          <mxGeometry x="-1" relative="1" as="geometry">
            <mxPoint x="-20" y="20" as="offset" />
          </mxGeometry>
        </mxCell>
        <mxCell id="emTc7THupfJZA45jP89o-196" value="" style="rhombus;whiteSpace=wrap;html=1;" parent="1" vertex="1">
          <mxGeometry x="1314" y="-760" width="10" height="20" as="geometry" />
        </mxCell>
        <mxCell id="emTc7THupfJZA45jP89o-197" value="" style="endArrow=none;html=1;rounded=0;exitX=1;exitY=0.5;exitDx=0;exitDy=0;entryX=0;entryY=0.5;entryDx=0;entryDy=0;" parent="1" source="emTc7THupfJZA45jP89o-107" target="emTc7THupfJZA45jP89o-199" edge="1">
          <mxGeometry relative="1" as="geometry">
            <mxPoint x="1220" y="-1139" as="sourcePoint" />
            <mxPoint x="1540" y="-927" as="targetPoint" />
          </mxGeometry>
        </mxCell>
        <mxCell id="emTc7THupfJZA45jP89o-198" value="1" style="resizable=0;html=1;whiteSpace=wrap;align=left;verticalAlign=bottom;" parent="emTc7THupfJZA45jP89o-197" connectable="0" vertex="1">
          <mxGeometry x="-1" relative="1" as="geometry" />
        </mxCell>
        <mxCell id="emTc7THupfJZA45jP89o-199" value="" style="rhombus;whiteSpace=wrap;html=1;rotation=30;" parent="1" vertex="1">
          <mxGeometry x="1220" y="-1140" width="20" height="10" as="geometry" />
        </mxCell>
        <mxCell id="emTc7THupfJZA45jP89o-200" value="" style="rhombus;whiteSpace=wrap;html=1;rotation=40;" parent="1" vertex="1">
          <mxGeometry x="1130" y="-1082" width="20" height="10" as="geometry" />
        </mxCell>
        <mxCell id="emTc7THupfJZA45jP89o-201" value="" style="endArrow=none;html=1;rounded=0;exitX=-0.004;exitY=0.821;exitDx=0;exitDy=0;entryX=0.996;entryY=0.102;entryDx=0;entryDy=0;exitPerimeter=0;entryPerimeter=0;" parent="1" source="emTc7THupfJZA45jP89o-110" target="emTc7THupfJZA45jP89o-203" edge="1">
          <mxGeometry relative="1" as="geometry">
            <mxPoint x="1539" y="-890" as="sourcePoint" />
            <mxPoint x="1399" y="-890" as="targetPoint" />
          </mxGeometry>
        </mxCell>
        <mxCell id="emTc7THupfJZA45jP89o-202" value="1" style="resizable=0;html=1;whiteSpace=wrap;align=left;verticalAlign=bottom;" parent="emTc7THupfJZA45jP89o-201" connectable="0" vertex="1">
          <mxGeometry x="-1" relative="1" as="geometry">
            <mxPoint x="-19" as="offset" />
          </mxGeometry>
        </mxCell>
        <mxCell id="emTc7THupfJZA45jP89o-203" value="" style="rhombus;whiteSpace=wrap;html=1;" parent="1" vertex="1">
          <mxGeometry x="1520" y="-892" width="20" height="10" as="geometry" />
        </mxCell>
        <mxCell id="emTc7THupfJZA45jP89o-204" value="CuaHang_soDienThoai" style="swimlane;fontStyle=1;align=center;verticalAlign=top;childLayout=stackLayout;horizontal=1;startSize=26;horizontalStack=0;resizeParent=1;resizeParentMax=0;resizeLast=0;collapsible=1;marginBottom=0;whiteSpace=wrap;html=1;" parent="1" vertex="1">
          <mxGeometry x="1050" y="-1400" width="160" height="78" as="geometry" />
        </mxCell>
        <mxCell id="emTc7THupfJZA45jP89o-205" value="- maCH: int&lt;div&gt;- soDienThoai: int&lt;/div&gt;" style="text;strokeColor=none;fillColor=none;align=left;verticalAlign=top;spacingLeft=4;spacingRight=4;overflow=hidden;rotatable=0;points=[[0,0.5],[1,0.5]];portConstraint=eastwest;whiteSpace=wrap;html=1;" parent="emTc7THupfJZA45jP89o-204" vertex="1">
          <mxGeometry y="26" width="160" height="44" as="geometry" />
        </mxCell>
        <mxCell id="emTc7THupfJZA45jP89o-206" value="" style="line;strokeWidth=1;fillColor=none;align=left;verticalAlign=middle;spacingTop=-1;spacingLeft=3;spacingRight=3;rotatable=0;labelPosition=right;points=[];portConstraint=eastwest;strokeColor=inherit;" parent="emTc7THupfJZA45jP89o-204" vertex="1">
          <mxGeometry y="70" width="160" height="8" as="geometry" />
        </mxCell>
        <mxCell id="emTc7THupfJZA45jP89o-207" value="" style="endArrow=none;html=1;rounded=0;exitX=0.5;exitY=1;exitDx=0;exitDy=0;entryX=0.5;entryY=0;entryDx=0;entryDy=0;" parent="1" source="emTc7THupfJZA45jP89o-204" target="emTc7THupfJZA45jP89o-106" edge="1">
          <mxGeometry relative="1" as="geometry">
            <mxPoint x="930" y="-1180" as="sourcePoint" />
            <mxPoint x="1090" y="-1180" as="targetPoint" />
          </mxGeometry>
        </mxCell>
        <mxCell id="emTc7THupfJZA45jP89o-208" value="1..2" style="resizable=0;html=1;whiteSpace=wrap;align=left;verticalAlign=bottom;" parent="emTc7THupfJZA45jP89o-207" connectable="0" vertex="1">
          <mxGeometry x="-1" relative="1" as="geometry">
            <mxPoint x="-30" y="22" as="offset" />
          </mxGeometry>
        </mxCell>
        <mxCell id="emTc7THupfJZA45jP89o-209" value="1" style="resizable=0;html=1;whiteSpace=wrap;align=right;verticalAlign=bottom;" parent="emTc7THupfJZA45jP89o-207" connectable="0" vertex="1">
          <mxGeometry x="1" relative="1" as="geometry">
            <mxPoint x="-10" y="-8" as="offset" />
          </mxGeometry>
        </mxCell>
        <mxCell id="emTc7THupfJZA45jP89o-210" value="1" style="text;html=1;align=center;verticalAlign=middle;resizable=0;points=[];autosize=1;strokeColor=none;fillColor=none;" parent="1" vertex="1">
          <mxGeometry x="545" y="-1162" width="30" height="30" as="geometry" />
        </mxCell>
      </root>
    </mxGraphModel>
  </diagram>
</mxfile>
